<svg xmlns="http://www.w3.org/2000/svg" version="1.1" xmlns:xlink="http://www.w3.org/1999/xlink" xmlns:svgjs="http://svgjs.dev/svgjs" width="60" height="60"><svg width="60" height="60" viewBox="0 0 60 60" fill="none" xmlns="http://www.w3.org/2000/svg"><g clip-path="url(#clip0_358_1224)"><path d="M48.2383 10.7616C37.8906 0.412147 21.1112 0.412147 10.7617 10.7616C3.95005 17.5732 1.62121 27.1711 3.77854 35.8878C5.4163 37.4129 7.67451 38.2537 10.0891 37.9846C10.1564 37.9762 10.2219 37.9678 10.2875 37.9594C11.2275 37.8383 12.196 37.5945 13.1897 37.2263C13.8422 36.9858 14.5198 36.6731 15.2041 36.3116L12.9611 34.0685C14.5568 32.8847 15.5707 32.2475 15.5707 32.2475L9.98486 26.6616L10.0538 26.6431C10.0403 26.6229 10.0353 26.6112 10.0387 26.6078C15.4648 21.1817 21.8476 22.6647 23.0617 23.0128C28.4928 17.9583 34.9833 13.7983 42.1867 14.6021L34.7983 21.9905C32.91 20.8202 30.5762 20.6588 28.5668 21.5045C28.5416 21.5146 28.5164 21.5264 28.4928 21.5348C27.7177 21.861 26.9913 22.3385 26.3607 22.9708C25.3232 24.0082 24.6977 25.303 24.4859 26.6515C24.4758 26.702 24.4674 26.7541 24.4623 26.8079V26.8146C24.2353 28.375 24.5514 29.996 25.4073 31.3798C25.6797 31.8204 26.0076 32.2357 26.3893 32.6174C26.7676 32.9974 27.1813 33.3219 27.6185 33.5926C29.1755 34.5612 31.0403 34.842 32.7738 34.435C32.8495 34.4166 32.9235 34.3997 32.9958 34.3796C33.0513 34.3661 33.1034 34.3527 33.1539 34.3342C34.2081 34.0349 35.2002 33.4682 36.0292 32.6392C36.4092 32.2592 36.7337 31.8439 37.0028 31.4034C37.0397 31.3462 37.0751 31.284 37.1104 31.2218C38.3748 29.0543 38.3412 26.3371 37.0112 24.1999L44.3979 16.8132C45.2016 24.0167 41.04 30.5071 35.9871 35.9383C36.3352 37.1523 37.8183 43.5352 32.3922 48.9613C32.3888 48.9646 32.377 48.9596 32.3568 48.9462L32.3367 49.0151L26.7508 43.4292C26.7508 43.4292 26.1152 44.4432 24.9315 46.0389L22.6884 43.7958C22.3269 44.4785 22.0141 45.1578 21.7737 45.8102C21.4054 46.804 21.1616 47.7708 21.0405 48.7124C21.0321 48.778 21.0237 48.8436 21.0153 48.9108C20.7463 51.3254 21.587 53.5837 23.1121 55.2197C31.8289 57.3787 41.4267 55.0499 48.2383 48.2383C58.5878 37.8888 58.5878 21.1094 48.2383 10.7616Z" fill="#1A1630"/><path d="M28.4911 21.5366C27.716 21.8628 26.9913 22.3403 26.359 22.9709C25.3216 24.0084 24.696 25.3031 24.4859 26.6516C24.4758 26.7021 24.4674 26.7542 24.4623 26.808C24.4623 26.808 24.4623 26.8114 24.4623 26.8147C24.237 28.3751 24.5531 29.9961 25.409 31.3799L23.8805 32.9084C21.8897 34.8993 19.66 36.6446 17.2169 38.047C16.134 38.6691 15.0562 39.2021 14.0574 39.5721C13.5058 39.7772 12.9594 39.947 12.4163 40.0883C10.5263 40.5793 8.68507 40.739 6.95315 40.4111C6.88925 40.3994 6.82368 40.3859 6.75978 40.3724C6.1864 40.2514 5.63319 40.0832 5.10521 39.8697C4.55537 38.5733 4.11314 37.2432 3.78021 35.8896C5.41797 37.4147 7.6745 38.2555 10.0908 37.9864C10.158 37.9797 10.2219 37.9713 10.2892 37.9612C11.2291 37.8418 12.1977 37.5963 13.1897 37.2281C13.8421 36.986 14.5215 36.6732 15.2058 36.3134L12.9627 34.0703C14.5584 32.8865 15.5724 32.2493 15.5724 32.2493L9.98653 26.6634L10.0555 26.6449C10.042 26.6247 10.037 26.613 10.042 26.6096C15.4681 21.1835 21.851 22.6665 23.0633 23.0146C28.4945 17.9618 34.985 13.8018 42.1901 14.6039L34.8017 21.9923C32.9134 20.822 30.5795 20.6622 28.5685 21.5063C28.5433 21.5164 28.518 21.5282 28.4945 21.5366H28.4911Z" fill="#58C13A"/><path d="M32.3367 49.0152L26.7508 43.4293C26.7508 43.4293 26.1152 44.4432 24.9298 46.039L22.6867 43.7959C22.3268 44.4802 22.0141 45.1579 21.772 45.812C21.4037 46.804 21.1599 47.7725 21.0388 48.7125C21.0288 48.7798 21.0203 48.8453 21.0136 48.9109C20.7429 51.3255 21.5836 53.5837 23.1104 55.2215C21.7568 54.8885 20.4268 54.4446 19.1304 53.8965C18.9168 53.3685 18.7487 52.8153 18.6276 52.2419C18.6142 52.178 18.6007 52.1124 18.5889 52.0485C18.2594 50.3166 18.4208 48.4737 18.9118 46.5854C19.0513 46.044 19.2229 45.4958 19.428 44.9443C19.7979 43.9438 20.3309 42.8677 20.9514 41.7848C22.3538 39.3433 24.0991 37.1137 26.09 35.1212L27.6168 33.5944C29.1738 34.5629 31.0386 34.842 32.7722 34.4368C32.8478 34.4183 32.9218 34.4015 32.9941 34.3813C33.0496 34.3695 33.1017 34.3544 33.1522 34.3376C34.2064 34.0366 35.1985 33.4716 36.0275 32.6427C36.4075 32.2627 36.732 31.8473 37.0011 31.4068C37.038 31.3479 37.0734 31.2874 37.1087 31.2252C38.3731 29.0578 38.3378 26.3405 37.0095 24.2034L44.3962 16.8167C45.1982 24.0201 41.0383 30.5106 35.9854 35.9434C36.3318 37.1557 37.8149 43.5403 32.3905 48.9647C32.3871 48.9681 32.3753 48.9647 32.3551 48.9513L32.3367 49.0202V49.0152Z" fill="#EA424A"/><path d="M33.9559 23.4013C33.9559 23.4013 33.9559 23.4047 33.9593 23.4064C34.0753 23.6149 34.2014 23.8738 34.3191 24.1748C34.7613 25.2947 35.0959 26.9677 34.3746 28.6105C34.309 28.7619 34.2333 28.9098 34.1509 29.0595C33.9946 29.3336 33.8079 29.6077 33.5826 29.875C30.9747 32.984 27.8925 31.6271 26.5473 29.6362C26.7911 30.1424 27.1628 30.8553 27.8034 31.4707C28.7349 32.3669 29.9624 32.7789 31.1579 32.8109C32.5653 32.8478 33.971 32.3115 35.0051 31.195C36.8598 29.1923 36.8009 26.0984 34.911 24.1681C34.8521 24.1076 34.7916 24.0504 34.7294 23.9915C34.494 23.7729 34.2434 23.5829 33.9794 23.4182C33.971 23.4114 33.9609 23.4064 33.9509 23.3997L33.9559 23.4013Z" fill="#F0F0F0"/><path d="M44.3978 16.8132L37.0111 24.1999C36.7404 23.7627 36.4159 23.3491 36.0359 22.9707C35.6559 22.5924 35.2389 22.2612 34.7983 21.9904L42.1867 14.6021C42.713 14.7702 43.1804 15.0611 43.5605 15.4411C43.9405 15.8211 44.2297 16.2886 44.3995 16.8149L44.3978 16.8132Z" fill="#FDCE1C"/></g><defs><clipPath id="SvgjsClipPath1001"><rect width="53" height="53" fill="white" transform="translate(3 3)"/></clipPath></defs></svg><style>@media (prefers-color-scheme: light) { :root { filter: none; } }
@media (prefers-color-scheme: dark) { :root { filter: none; } }</style></svg>